<svg width="535" height="535" viewBox="0 0 535 535" fill="none" xmlns="http://www.w3.org/2000/svg">
<g clip-path="url(#clip0_898_63)">
<path d="M122.604 325.493L152.326 274.027L282.361 499.189H222.917L193.194 447.723L163.472 499.189H133.75L118.889 473.456L163.472 396.258L122.604 325.493Z" fill="white" style="mix-blend-mode:exclusion"/>
<path d="M144.896 171.094H204.34L74.3056 396.255L44.5834 344.79L74.3056 293.324H14.8611L0 267.592L14.8611 241.859H104.028L144.896 171.094Z" fill="white" style="mix-blend-mode:exclusion"/>
<path d="M289.793 113.198L319.515 164.664H59.4453L89.1676 113.198H148.612L118.89 61.7327L133.751 36H163.473L208.057 113.198H289.793Z" fill="white" style="mix-blend-mode:exclusion"/>
<path d="M412.398 209.696L382.675 261.161L252.641 36H312.085L341.807 87.4655L371.53 36H401.252L416.113 61.7327L371.53 138.931L412.398 209.696Z" fill="white" style="mix-blend-mode:exclusion"/>
<path d="M245.209 421.989L215.486 370.523H475.556L445.834 421.989H386.389L416.111 473.454L401.25 499.187H371.528L326.945 421.989H245.209Z" fill="white" style="mix-blend-mode:exclusion"/>
<path d="M191.563 0.750622L247.999 -97L495.204 330.83L382.263 330.791L325.76 233.001L269.323 330.752L212.853 330.732L184.601 281.837L269.256 135.211L191.563 0.750622Z" fill="#F0323B"/>
</g>
<defs>
<clipPath id="clip0_898_63">
<rect width="535.001" height="535" fill="white"/>
</clipPath>
</defs>
</svg>
