<svg width="2304" height="2304" viewBox="0 0 2304 2304" fill="none" xmlns="http://www.w3.org/2000/svg">
<path d="M528 1401.08L656 1179.38L1216 2149.32H960L832 1927.62L704 2149.32H576L512 2038.47L704 1705.92L528 1401.08Z" fill="white"/>
<path d="M624 735.969H880L320 1705.92L192 1484.21L320 1262.51H64L0 1151.66L64 1040.81H448L624 735.969Z" fill="white"/>
<path d="M1248 486.554L1376 708.256H256L384 486.554H640L512 264.851L576 154H704L896 486.554H1248Z" fill="white"/>
<path d="M1776 902.246L1648 1123.95L1088 154H1344L1472 375.703L1600 154H1728L1792 264.851L1600 597.405L1776 902.246Z" fill="white"/>
<path d="M1680 1567.35H1424L1984 597.398L2112 819.101L1984 1040.8H2240L2304 1151.65L2240 1262.51H1856L1680 1567.35Z" fill="white"/>
<path d="M1056 1816.76L928 1595.06H2048L1920 1816.76H1664L1792 2038.47L1728 2149.32H1600L1408 1816.76H1056Z" fill="white"/>
</svg>
